<svg width="24" height="21" viewBox="0 0 24 21" fill="none" xmlns="http://www.w3.org/2000/svg">
<g filter="url(#filter0_di_201_5578)">
<rect x="2" y="0.25" width="20" height="20" rx="6" fill="#141414" shape-rendering="crispEdges"/>
<path d="M12.2727 16.4318C11.4545 16.4318 10.75 16.2386 10.1591 15.8523C9.56818 15.4659 9.11364 14.9337 8.79545 14.2557C8.47727 13.5777 8.31818 12.803 8.31818 11.9318C8.31818 11.0455 8.48106 10.2633 8.80682 9.58523C9.13636 8.90341 9.5947 8.37121 10.1818 7.98864C10.7727 7.60227 11.4621 7.40909 12.25 7.40909C12.8636 7.40909 13.4167 7.52273 13.9091 7.75C14.4015 7.97727 14.8049 8.29545 15.1193 8.70455C15.4337 9.11364 15.6288 9.59091 15.7045 10.1364H14.3636C14.2614 9.73864 14.0341 9.38636 13.6818 9.07955C13.3333 8.76894 12.8636 8.61364 12.2727 8.61364C11.75 8.61364 11.2917 8.75 10.8977 9.02273C10.5076 9.29167 10.2027 9.67235 9.98295 10.1648C9.76705 10.6534 9.65909 11.2273 9.65909 11.8864C9.65909 12.5606 9.76515 13.1477 9.97727 13.6477C10.1932 14.1477 10.4962 14.536 10.8864 14.8125C11.2803 15.089 11.7424 15.2273 12.2727 15.2273C12.6212 15.2273 12.9375 15.1667 13.2216 15.0455C13.5057 14.9242 13.7462 14.75 13.9432 14.5227C14.1402 14.2955 14.2803 14.0227 14.3636 13.7045H15.7045C15.6288 14.2197 15.4413 14.6837 15.142 15.0966C14.8466 15.5057 14.4545 15.8314 13.9659 16.0739C13.4811 16.3125 12.9167 16.4318 12.2727 16.4318Z" fill="white"/>
</g>
<defs>
<filter id="filter0_di_201_5578" x="0" y="-0.75" width="24" height="24" filterUnits="userSpaceOnUse" color-interpolation-filters="sRGB">
<feFlood flood-opacity="0" result="BackgroundImageFix"/>
<feColorMatrix in="SourceAlpha" type="matrix" values="0 0 0 0 0 0 0 0 0 0 0 0 0 0 0 0 0 0 127 0" result="hardAlpha"/>
<feOffset dy="1"/>
<feGaussianBlur stdDeviation="1"/>
<feComposite in2="hardAlpha" operator="out"/>
<feColorMatrix type="matrix" values="0 0 0 0 0.0627451 0 0 0 0 0.0941176 0 0 0 0 0.156863 0 0 0 0.05 0"/>
<feBlend mode="normal" in2="BackgroundImageFix" result="effect1_dropShadow_201_5578"/>
<feBlend mode="normal" in="SourceGraphic" in2="effect1_dropShadow_201_5578" result="shape"/>
<feColorMatrix in="SourceAlpha" type="matrix" values="0 0 0 0 0 0 0 0 0 0 0 0 0 0 0 0 0 0 127 0" result="hardAlpha"/>
<feOffset dy="1"/>
<feComposite in2="hardAlpha" operator="arithmetic" k2="-1" k3="1"/>
<feColorMatrix type="matrix" values="0 0 0 0 1 0 0 0 0 1 0 0 0 0 1 0 0 0 0.1 0"/>
<feBlend mode="normal" in2="shape" result="effect2_innerShadow_201_5578"/>
</filter>
</defs>
</svg>
