<svg width="25" height="25" viewBox="0 0 25 25" fill="none" xmlns="http://www.w3.org/2000/svg">
<rect x="0.5" y="0.5" width="24" height="24" rx="12" fill="white"/>
<path fill-rule="evenodd" clip-rule="evenodd" d="M16.1876 4.57252C16.2397 4.67664 16.2107 4.75901 15.6887 5.98892C15.2522 7.01767 15.1067 7.36189 15.0358 7.53362C14.9955 7.63121 14.9081 7.83786 14.8415 7.99285C14.7749 8.14785 14.6826 8.36859 14.6363 8.4834C14.5899 8.59821 14.4801 8.86123 14.3922 9.06788C14.3043 9.27454 14.182 9.56573 14.1203 9.71498C14.0587 9.86424 13.9292 10.1742 13.8327 10.4038C13.7361 10.6335 13.6288 10.8918 13.5941 10.9779C13.5594 11.064 13.5003 11.2049 13.4628 11.291C13.4253 11.3771 13.3831 11.4815 13.3692 11.5231C13.3552 11.5646 13.3342 11.6163 13.3226 11.6379C13.2578 11.7585 13.1661 12.0105 13.1811 12.0266C13.1909 12.0371 13.3963 12.0386 13.6576 12.0302L14.117 12.0154L14.3523 11.4244C14.4818 11.0994 14.5877 10.8286 14.5877 10.8227C14.5877 10.8108 15.0211 9.80416 15.1545 9.50624C15.35 9.06968 15.6864 8.39905 15.8231 8.17365C15.9039 8.04026 16.017 7.87926 16.0743 7.81586C16.1629 7.718 16.1892 7.70061 16.249 7.70061C16.3464 7.70061 16.378 7.71719 16.411 7.78561C16.4527 7.87189 16.4461 8.00158 16.3893 8.21293C16.1871 8.96522 15.6033 10.1421 14.8311 11.3539C14.529 11.8278 14.348 12.0742 14.2773 12.1078C14.2353 12.1276 14.2062 12.166 14.1767 12.2404C14.1538 12.298 14.1137 12.3956 14.0877 12.4573C14.0616 12.519 14.0437 12.5732 14.048 12.5778C14.0522 12.5823 14.0801 12.5459 14.11 12.4969C14.4385 11.9568 14.863 11.5206 15.06 11.5206C15.3104 11.5206 15.3646 11.7909 15.1898 12.1672C15.1412 12.2717 15.1109 12.3545 15.1224 12.3512C15.1339 12.3479 15.2462 12.2713 15.3721 12.1811L15.601 12.017L15.6911 11.8199C15.7907 11.6022 15.8406 11.5497 15.9179 11.5812C16.0161 11.6211 16.0038 11.6759 15.7992 12.1082C15.6233 12.4801 15.5151 12.7921 15.5494 12.8288C15.5883 12.8704 15.9754 12.5284 16.2067 12.2483C16.436 11.9705 16.6712 11.7282 16.7427 11.6962C16.876 11.6366 17.1413 11.6517 17.1413 11.8435C17.1413 12.0394 16.9216 11.9113 16.8138 11.8669C16.6197 12.0429 16.4591 12.1976 16.3192 12.4476C16.256 12.5829 16.2053 12.7577 16.2397 12.7801C16.3213 12.8331 17.058 12.3183 17.2574 12.0691C17.3416 11.9638 17.5867 11.5548 17.6222 11.4603C17.7429 11.1391 17.8616 10.8161 17.9896 10.4978C18.1935 9.9908 18.3865 9.47954 18.6057 8.97877C18.7815 8.57694 18.9517 8.172 19.1581 7.78411C19.3166 7.48653 19.4533 7.30893 19.5299 7.30125C20.0698 7.2469 19.5372 8.33682 19.4714 8.49384C19.0662 9.4613 18.5686 10.4025 18.0116 11.291C17.8135 11.607 17.6445 11.86 17.5793 11.9381C17.5379 11.9877 17.4853 12.1142 17.2581 12.7104C17.1121 13.0935 17.0626 13.2323 17.072 13.2323C17.0766 13.2323 17.1395 13.1266 17.2118 12.9975C17.7572 12.0236 18.2192 11.4371 18.441 11.4371C18.8846 11.4371 18.4631 12.3543 18.4094 12.4997C18.3652 12.6191 18.3316 12.7246 18.3346 12.7341C18.3447 12.7657 18.5845 12.5493 18.8687 12.2524C19.0231 12.091 19.1587 11.959 19.17 11.959C19.1813 11.959 19.2075 11.9687 19.2283 11.9806C19.2946 12.0186 19.2751 12.1164 19.1603 12.3225C19.009 12.5939 18.9077 12.9486 18.9695 12.9896C19.034 13.0322 19.3188 12.7315 19.4657 12.4653C19.5591 12.2964 19.5745 12.2512 19.539 12.2512C19.5 12.2512 19.3564 12.0925 19.3219 12.0112C19.2733 11.8973 19.2737 11.6898 19.3225 11.5876C19.3928 11.4397 19.5156 11.3648 19.6628 11.3799C19.7439 11.3883 19.7716 11.4027 19.824 11.4641C19.9273 11.5848 19.9291 11.6645 19.8371 12.079C19.8244 12.1366 19.8585 12.1398 20.0014 12.0944C20.0963 12.0642 20.1033 12.0568 20.1599 11.9273C20.2258 11.7768 20.2868 11.7309 20.3638 11.7742C20.4534 11.8248 20.4579 11.8954 20.3805 12.0363C20.2443 12.2846 20.1125 12.6396 20.1016 12.7873C20.0961 12.8606 20.0994 12.8665 20.1425 12.8613C20.3166 12.8403 20.9018 12.1584 21.0462 11.8084C21.086 11.7121 21.2201 11.5798 21.2905 11.7375C21.316 11.7944 21.3101 11.813 21.17 12.1234C21.0703 12.3444 20.9423 12.5908 20.9423 12.8391L21.0154 12.792C21.3266 12.6369 21.7157 11.9807 21.8871 12.0175C21.9162 12.0317 21.9364 12.0589 21.9364 12.0838C21.9364 12.1237 21.4086 12.697 21.1669 12.9194C20.9951 13.0775 20.8692 13.1002 20.7866 12.9878C20.7427 12.9281 20.732 12.7356 20.7671 12.6369C20.7884 12.577 20.4545 12.9551 20.3723 13.0304C20.1899 13.1973 20.0059 13.2119 19.9145 13.0668C19.8531 12.9692 19.857 12.831 19.9287 12.5573C19.9609 12.4346 19.9872 12.3314 19.9872 12.328C19.9872 12.3245 19.9306 12.3217 19.8612 12.3217H19.7353L19.6753 12.4424C19.5917 12.6105 19.4084 12.8688 19.288 12.9885C18.9223 13.3427 18.7018 13.1031 18.8369 12.7117C18.8474 12.6724 18.8539 12.6381 18.8515 12.6355C18.849 12.6329 18.7987 12.6781 18.7396 12.7358C18.6106 12.8623 18.3987 13.1071 18.2071 13.1071C17.7809 13.1071 18.3025 11.9591 18.3513 11.7469C17.9776 11.9794 17.7431 12.4305 17.5177 12.7929C17.2108 13.2866 16.8783 13.8193 16.6873 14.373C16.5916 14.6504 16.4346 14.9764 16.4099 15.0041C16.3769 15.0413 16.2899 15.0191 16.2753 14.9697C16.2688 14.9478 16.3104 14.8357 16.3779 14.6932C16.4404 14.5613 16.5315 14.3454 16.5805 14.2134C16.788 13.6536 16.9875 13.0834 17.2191 12.533C17.2813 12.3851 17.3173 12.2867 17.3116 12.2805C17.3085 12.2772 17.1799 12.3776 17.0257 12.5035C16.6734 12.7911 16.496 12.9099 16.3647 12.9459C16.1593 13.0022 16.0692 12.9455 16.0692 12.7601V12.6443L15.9186 12.7929C15.7496 12.9597 15.5744 13.066 15.4954 13.0498C15.4674 13.0441 15.4262 13.0147 15.4038 12.9845C15.3693 12.9379 15.3648 12.9107 15.374 12.8044C15.38 12.7355 15.4035 12.6148 15.4262 12.5362C15.449 12.4576 15.4628 12.3881 15.4569 12.3818C15.3398 12.2564 14.5761 13.2354 14.3644 13.1785C14.2965 13.1602 14.2488 13.0821 14.2672 13.0194C14.2749 12.993 14.3519 12.8915 14.4381 12.7939C14.6727 12.5285 14.9538 12.1808 15.0282 11.8285C15.0388 11.7782 15.0345 11.7711 14.9932 11.7711C14.8801 11.7711 14.5728 12.0541 14.3401 12.3726C14.1774 12.5953 13.9554 12.9675 13.8096 13.2618C13.6965 13.4902 13.6023 13.7291 13.311 14.5265C13.2292 14.7504 13.1495 14.9547 13.1338 14.9805C13.1009 15.0349 13.0136 15.0442 12.996 14.9952C12.9734 14.9321 13.1431 14.4387 13.3438 13.9838C13.397 13.8632 13.4891 13.6378 13.5486 13.4828C13.6081 13.3278 13.7478 12.9675 13.8591 12.6821C13.9704 12.3967 14.0614 12.1595 14.0614 12.155C14.0614 12.1505 13.8476 12.1468 13.5862 12.1468H13.111L13.0086 12.3921C12.9523 12.527 12.8947 12.6656 12.8807 12.7C12.8667 12.7345 12.7659 12.9787 12.6568 13.2427C12.5477 13.5068 12.4344 13.7839 12.405 13.8585C12.3757 13.9332 12.2574 14.2244 12.1421 14.5056C12.0269 14.7869 11.8601 15.1955 11.7716 15.4137C11.6831 15.6318 11.4989 16.0827 11.3624 16.4156C11.2258 16.7486 11.0833 17.1008 11.0456 17.1984C10.9375 17.4785 10.156 19.4009 10.0061 19.7555C9.74963 20.3621 9.73327 20.3937 9.65105 20.4429C9.59257 20.4779 9.57583 20.4798 9.52404 20.4568C9.45026 20.424 9.40117 20.3243 9.42156 20.2485C9.44632 20.1565 9.79343 19.4367 9.99145 19.0667C10.0612 18.9364 10.3429 18.3333 10.4449 18.096C10.4868 17.9984 10.5816 17.7824 10.6555 17.6159C10.7294 17.4494 10.812 17.2569 10.839 17.188C10.8661 17.1191 10.895 17.0533 10.9033 17.0419C10.9116 17.0304 10.9468 16.9505 10.9815 16.8644C11.0162 16.7783 11.0692 16.6515 11.0993 16.5826C11.2228 16.2994 11.3909 15.9027 11.3909 15.8946C11.3909 15.8898 11.5058 15.6152 11.6462 15.2844C11.7866 14.9537 11.9174 14.6455 11.9369 14.5996C11.9563 14.5536 12.0598 14.3047 12.1669 14.0464C12.3574 13.5867 12.6661 12.8449 12.7359 12.6791C12.9105 12.2643 12.9511 12.1615 12.9432 12.1531C12.9382 12.1478 12.5365 12.1385 12.0504 12.1326L11.1667 12.1218L11.1338 12.1813C11.1157 12.214 10.9906 12.4052 10.8558 12.6061C10.5787 13.0192 10.4688 13.185 10.262 13.5016C10.1824 13.6233 10.0153 13.8778 9.8906 14.0673C9.37693 14.8473 9.2511 15.0396 9.14272 15.21C9.07205 15.3212 8.91944 15.6316 8.7747 15.6325C8.59793 15.6336 8.71422 15.3189 8.77694 15.2044C8.83965 15.09 8.87286 15.0668 9.1611 14.4793C9.33248 14.13 9.38772 14.0106 9.65099 13.4202C9.87073 12.9273 10.1467 12.1643 10.1167 12.1322C10.1103 12.1253 8.42726 12.1225 6.3767 12.1259C2.66858 12.1259 2.29675 12.2386 2.04198 11.9657C1.00494 10.8551 7.97823 7.95154 10.1105 9.7998C10.3239 9.99562 10.4409 10.1975 10.5159 10.4996C10.6009 10.8419 10.5668 11.5192 10.4447 11.916C10.422 11.9895 10.412 12.0212 10.4217 12.0208C10.6264 12.0317 10.8422 12.0325 10.987 12.0208L11.1431 11.8076C11.2322 11.6785 11.5399 11.2252 11.8267 10.8004C12.1135 10.3757 12.3902 9.96704 12.4416 9.89242C12.493 9.81779 12.6526 9.58394 12.7963 9.37273C12.94 9.16152 13.1543 8.84684 13.2725 8.67344C13.9597 7.6655 14.866 6.30022 15.2119 5.75175C16.0198 4.47088 15.9789 4.52772 16.0916 4.52772C16.147 4.52772 16.1708 4.53885 16.1876 4.57252ZM15.571 5.6851C15.5287 5.74762 15.459 5.85232 15.4162 5.9178C15.1605 6.3082 14.898 6.69347 14.633 7.07656C14.3984 7.41553 14.2127 7.68475 14.0815 7.87621C14.0336 7.9461 13.7749 8.31872 13.5065 8.70425C13.2381 9.08978 12.9775 9.46552 12.9274 9.53922C12.8772 9.61293 12.6818 9.89868 12.4932 10.1742C12.3047 10.4498 12.0305 10.8537 11.884 11.0718C11.7375 11.29 11.5359 11.5878 11.436 11.7338C11.3362 11.8798 11.2545 12.0089 11.2545 12.0208C11.2696 12.0266 12.9938 12.0164 12.9938 12.0164C13.0205 11.9941 13.2264 11.51 13.7636 10.2055C13.8227 10.062 13.8928 9.89764 13.9194 9.84023C13.946 9.78283 13.9852 9.68889 14.0064 9.63149C14.0501 9.51321 14.0659 9.47487 14.1769 9.21799C14.2206 9.11685 14.2563 9.02999 14.2563 9.02496C14.2563 9.01993 14.2817 8.95708 14.3126 8.88529C14.3916 8.7021 14.5616 8.2901 14.7153 7.90936C14.7871 7.7314 14.8705 7.52945 14.9007 7.46056C14.9309 7.39167 14.999 7.22729 15.0521 7.09526C15.1052 6.96323 15.1984 6.73309 15.2591 6.58384C15.3198 6.43459 15.4209 6.18097 15.4838 6.02023C15.5467 5.8595 15.6122 5.69278 15.6293 5.64972C15.6464 5.60667 15.6575 5.57144 15.6541 5.57144C15.6506 5.57144 15.6132 5.62258 15.571 5.6851ZM19.2767 8.04633C18.9944 8.50521 18.6852 9.14075 18.3086 10.036C18.1812 10.3388 18.0769 10.5909 18.0769 10.5961C18.0769 10.6013 18.0499 10.6714 18.017 10.7519C17.984 10.8323 17.9606 10.902 17.965 10.9067C17.9792 10.9219 18.2048 10.5248 18.5827 9.81936C18.6825 9.63305 18.949 9.06563 19.0784 8.76347C19.2478 8.36813 19.4166 7.89675 19.3965 7.87512C19.3917 7.86995 19.3377 7.94699 19.2767 8.04633ZM16.1028 8.14419C15.9704 8.32089 15.667 8.8454 15.484 9.214C15.3643 9.45533 14.9386 10.3684 14.9386 10.384C14.9386 10.3897 14.9003 10.4811 14.8536 10.587C14.7142 10.9027 14.5069 11.4162 14.5188 11.4162C14.5282 11.4162 14.892 10.8649 15.0491 10.6126C15.4103 10.0322 15.8203 9.21809 16.0068 8.71068C16.1145 8.41777 16.2136 8.05548 16.186 8.05548C16.1768 8.05548 16.1393 8.09541 16.1028 8.14419ZM2.23034 11.8549C2.40961 11.9657 2.63505 11.9818 3.04073 11.9818C3.27975 11.9818 7.34968 11.9844 10.1167 12.0208C10.1698 12.0042 10.1743 11.9941 10.2158 11.8221C10.3582 11.2316 10.3581 10.7143 10.2154 10.3725C10.0034 9.86451 9.47727 9.56799 8.62295 9.47503C5.9324 9.07679 1.50347 11.3291 2.23034 11.8549ZM16.152 11.2308C16.1997 11.2923 16.1945 11.3674 16.1383 11.4276C16.0835 11.4863 16.0324 11.492 15.9535 11.4483C15.8564 11.3945 15.8582 11.2729 15.9572 11.197C16.0125 11.1547 16.1056 11.1709 16.152 11.2308ZM19.5778 11.7263C19.5219 11.7862 19.5156 11.8037 19.525 11.8781C19.5412 12.0071 19.6336 12.0931 19.6642 12.0077C19.6948 11.9224 19.6979 11.7394 19.6696 11.6992C19.6418 11.6597 19.6392 11.6604 19.5778 11.7263ZM10.3872 12.1521C10.1878 12.7701 9.90062 13.52 9.73955 13.8429C9.73524 13.8515 9.73616 13.8585 9.74156 13.8585C10.0207 13.7485 10.6426 12.4772 10.8485 12.2472C10.8788 12.2048 10.9036 12.1468 10.9036 12.1481C10.9036 12.1481 10.4 12.1453 10.3872 12.1521Z" fill="black" stroke="black" stroke-width="0.0754717"/>
</svg>
