<svg width="1168" height="764" viewBox="0 0 1168 764" fill="none" xmlns="http://www.w3.org/2000/svg">
<path fill-rule="evenodd" clip-rule="evenodd" d="M872.8 2.1641C875.469 7.1521 873.981 11.0981 847.205 70.0181C824.809 119.301 817.344 135.791 813.709 144.018C811.643 148.693 807.158 158.593 803.742 166.018C800.326 173.443 795.588 184.018 793.212 189.518C790.836 195.018 785.203 207.618 780.694 217.518C776.184 227.418 769.908 241.368 766.745 248.518C763.582 255.668 756.941 270.518 751.988 281.518C747.035 292.518 741.526 304.893 739.747 309.018C737.968 313.143 734.937 319.893 733.012 324.018C731.087 328.143 728.925 333.146 728.208 335.136C727.491 337.126 726.417 339.601 725.821 340.636C722.496 346.416 717.789 358.485 718.56 359.256C719.063 359.759 729.603 359.834 743.008 359.43L766.572 358.72L778.647 330.409C785.288 314.838 790.722 301.866 790.722 301.583C790.722 301.016 812.957 252.79 819.799 238.518C829.826 217.604 847.086 185.477 854.096 174.679C858.245 168.289 864.046 160.576 866.987 157.539C871.529 152.851 872.88 152.018 875.947 152.018C880.943 152.018 882.564 152.812 884.259 156.09C886.397 160.223 886.058 166.436 883.144 176.561C872.773 212.6 842.82 268.981 803.206 327.031C787.712 349.734 778.426 361.539 774.795 363.146C772.643 364.098 771.15 365.938 769.634 369.502C768.461 372.261 766.406 376.936 765.069 379.892C763.731 382.847 762.814 385.444 763.033 385.662C763.251 385.88 764.681 384.137 766.212 381.788C783.069 355.915 804.845 335.018 814.95 335.018C827.795 335.018 830.577 347.965 821.608 365.995C819.118 371 817.562 374.966 818.151 374.807C818.74 374.648 824.505 370.981 830.963 366.658L842.704 358.797L847.327 349.356C852.434 338.927 854.994 336.41 858.96 337.919C863.999 339.834 863.367 342.456 852.874 363.168C843.848 380.984 838.299 395.929 840.058 397.687C842.051 399.68 861.914 383.298 873.776 369.878C885.54 356.57 897.607 344.964 901.274 343.432C903.135 342.654 907.113 342.018 910.113 342.018C917.122 342.018 921.722 345.373 921.722 350.484C921.722 356.462 919.157 357.077 909.573 353.393L904.924 351.606L900.711 354.526C894.321 358.954 882.148 373.444 878.218 381.298C874.975 387.781 873.704 394.283 875.472 395.355C879.657 397.892 917.451 373.234 927.679 361.293C931.998 356.25 944.571 336.657 946.394 332.129C947.193 330.143 948.456 327.168 949.201 325.518C949.946 323.868 953.327 315.543 956.714 307.018C960.102 298.493 963.939 289.043 965.242 286.018C966.545 282.993 970.825 272.868 974.752 263.518C982.645 244.725 990.924 225.889 996.847 213.249C998.978 208.701 1000.72 204.756 1000.72 204.483C1000.72 203.437 1020.58 164.108 1025.19 156.018C1033.32 141.762 1040.33 133.254 1044.26 132.886C1048.59 132.479 1050.65 133.146 1053.62 135.919C1056.12 138.256 1056.72 139.621 1056.72 142.938C1056.72 151 1051.15 167.966 1041.26 190.018C1035.2 203.531 1018.36 237.195 1012.51 247.518C1010.01 251.918 1006.96 257.318 1005.72 259.518C992.669 282.77 978.784 305.528 966.37 324.018C956.207 339.156 947.537 351.275 944.194 355.018C942.069 357.396 939.371 363.453 927.715 392.018C920.227 410.368 917.687 417.018 918.167 417.018C918.402 417.018 921.63 411.956 925.341 405.768C953.322 359.112 977.022 331.018 988.4 331.018C992.744 331.018 994.47 332.081 997.165 336.42C1000.58 341.915 997.8 354.084 986.777 381.921C984.511 387.643 982.785 392.697 982.94 393.151C983.457 394.665 995.763 384.3 1010.34 370.076C1018.26 362.344 1025.22 356.018 1025.8 356.018C1026.38 356.018 1027.72 356.484 1028.79 357.053C1032.19 358.873 1031.19 363.562 1025.3 373.434C1017.54 386.434 1012.34 403.426 1015.51 405.389C1018.82 407.433 1033.43 393.026 1040.97 380.275C1045.76 372.181 1046.55 370.018 1044.73 370.018C1042.73 370.018 1035.36 362.413 1033.59 358.518C1031.1 353.065 1031.12 343.122 1033.62 338.228C1037.23 331.144 1043.53 327.553 1051.08 328.278C1055.24 328.678 1056.66 329.369 1059.35 332.309C1064.65 338.091 1064.74 341.91 1060.02 361.768C1059.37 364.529 1061.12 364.682 1068.45 362.506C1073.32 361.06 1073.68 360.704 1076.58 354.5C1079.96 347.289 1083.09 345.091 1087.04 347.168C1091.64 349.589 1091.87 352.974 1087.9 359.724C1080.91 371.619 1074.15 388.624 1073.59 395.701C1073.31 399.211 1073.48 399.496 1075.69 399.247C1084.62 398.24 1114.64 365.57 1122.05 348.805C1123.91 344.604 1125.24 342.926 1127.07 342.466C1130.99 341.484 1133.1 342.31 1134.58 345.408C1135.89 348.136 1135.59 349.027 1128.4 363.896C1120.97 379.276 1116.72 390.841 1116.72 395.705V398.181L1120.47 395.927C1126.56 392.27 1134.36 385.478 1148.94 371.152C1162 358.321 1162.78 357.725 1165.19 358.822C1166.68 359.502 1167.72 360.804 1167.72 361.997C1167.72 363.908 1140.64 391.372 1128.24 402.03C1119.43 409.604 1112.97 410.689 1108.73 405.306C1106.48 402.445 1105.93 393.224 1107.73 388.497C1109.23 384.564 1107.84 385.662 1099.96 394.646C1096.04 399.116 1090.42 404.831 1087.48 407.346C1078.12 415.341 1068.68 416.041 1063.99 409.088C1060.84 404.416 1061.04 397.793 1064.72 384.681C1066.37 378.805 1067.72 373.861 1067.72 373.695C1067.72 373.529 1064.82 373.393 1061.26 373.393H1054.8L1051.72 379.179C1047.43 387.232 1038.03 399.602 1031.85 405.339C1018.52 417.715 1007.72 416.054 1007.72 401.627C1007.72 398.26 1008.16 393.963 1008.71 392.078C1009.25 390.193 1009.58 388.55 1009.46 388.427C1009.33 388.304 1006.75 390.466 1003.72 393.232C1000.7 395.997 995.747 400.115 992.722 402.383C989.697 404.651 986.997 406.758 986.722 407.064C985.519 408.406 978.699 411.018 976.398 411.018C972.454 411.018 968.019 406.664 967.488 402.272C967.062 398.757 969.983 385.554 972.741 378.518C975.159 372.35 982.432 351.414 983.103 348.688L983.8 345.859L980.651 347.688C973.389 351.908 956.098 372.917 940.051 397.018C934.352 405.577 920.446 428.195 911.46 443.518C905.522 453.644 898.386 467.634 896.357 473.127C891.446 486.418 885.469 500.569 884.204 501.898C882.508 503.68 878.046 502.616 877.295 500.249C876.962 499.199 879.096 493.831 882.561 487.001C885.766 480.685 890.442 470.343 892.953 464.018C895.464 457.693 898.642 450.043 900.014 447.018C901.386 443.993 904.58 436.118 907.112 429.518C909.644 422.918 912.2 416.685 912.791 415.666C913.382 414.648 916.126 407.898 918.889 400.666C921.651 393.435 924.722 385.718 925.713 383.518C928.906 376.43 930.755 371.718 930.461 371.423C930.302 371.265 923.702 376.071 915.793 382.102C897.722 395.883 888.617 401.574 881.882 403.298C871.346 405.994 866.722 403.279 866.722 394.396V388.851L858.998 395.969C850.328 403.957 841.342 409.05 837.285 408.275C835.85 408.001 833.738 406.593 832.59 405.147C830.818 402.915 830.587 401.612 831.059 396.518C831.365 393.218 832.571 387.437 833.739 383.671C834.907 379.906 835.615 376.577 835.312 376.275C834.26 375.223 812.043 390.91 793.571 405.747C783.511 413.828 781.557 415.015 779.264 414.439C775.784 413.566 773.335 409.82 774.279 406.817C774.676 405.553 778.622 400.693 783.047 396.018C787.472 391.343 793.932 383.693 797.403 379.018C803.671 370.577 812.126 355.036 813.317 349.768C813.862 347.356 813.642 347.018 811.526 347.018C805.72 347.018 789.956 360.574 778.019 375.831C769.671 386.502 758.281 404.33 750.804 418.429C745.001 429.374 740.17 440.816 725.225 479.018C721.029 489.743 716.939 499.531 716.136 500.768C714.446 503.372 709.966 503.818 709.066 501.472C707.906 498.45 716.61 474.809 726.906 453.018C729.635 447.243 734.363 436.443 737.414 429.018C740.464 421.593 747.631 404.331 753.341 390.659C759.051 376.986 763.722 365.623 763.722 365.409C763.722 365.194 752.751 365.018 739.342 365.018H714.963L709.711 376.768C706.822 383.23 703.87 389.868 703.151 391.518C702.431 393.168 697.262 404.868 691.664 417.518C686.065 430.168 680.253 443.443 678.748 447.018C677.243 450.593 671.174 464.543 665.261 478.018C659.348 491.493 650.794 511.068 646.253 521.518C641.711 531.968 632.263 553.568 625.257 569.518C618.251 585.468 610.939 602.343 609.007 607.018C603.462 620.437 563.371 712.527 555.678 729.518C542.522 758.575 541.683 760.091 537.465 762.449C534.465 764.125 533.606 764.213 530.949 763.112C527.164 761.544 524.646 756.765 525.692 753.136C526.962 748.725 544.769 714.242 554.928 696.518C558.505 690.279 572.959 661.384 578.189 650.018C580.34 645.343 585.203 634.993 588.995 627.018C592.786 619.043 597.023 609.818 598.41 606.518C599.796 603.218 601.28 600.068 601.706 599.518C602.132 598.968 603.938 595.143 605.72 591.018C607.501 586.893 610.22 580.818 611.761 577.518C618.096 563.95 626.722 544.945 626.722 544.555C626.722 544.325 632.615 531.173 639.818 515.327C647.021 499.482 653.731 484.718 654.73 482.518C655.728 480.318 661.037 468.393 666.529 456.018C676.303 433.995 692.139 398.461 695.72 390.518C704.68 370.645 706.759 365.721 706.356 365.319C706.1 365.063 685.49 364.62 660.556 364.336L615.222 363.818L613.531 366.668C612.601 368.236 606.184 377.393 599.271 387.018C585.054 406.811 579.414 414.752 568.805 429.917C564.726 435.747 556.153 447.943 549.754 457.018C523.402 494.387 516.947 503.598 511.387 511.762C508.178 516.475 504.909 520.974 504.122 521.761C503.335 522.547 501.464 524.84 499.963 526.855C496.491 531.515 495.811 531.984 492.507 532.003C488.7 532.024 487.609 529.388 488.379 522.024C488.909 516.956 489.656 515.101 492.622 511.494C496.426 506.868 497.543 504.899 512.33 476.758C521.122 460.025 523.956 454.304 537.462 426.018C548.735 402.406 562.89 365.853 561.354 364.316C561.023 363.986 474.683 363.851 369.487 364.017C264.291 364.183 145.822 364.363 106.222 364.418C19.3041 364.539 8.79012 363.724 1.97212 356.342C-14.3823 338.637 76.0593 307.283 86.2221 303.567C188.904 266.018 461.419 173.205 561.034 252.581C571.985 261.962 577.985 271.634 581.833 286.105C586.193 302.502 584.446 334.951 578.178 353.957C577.016 357.481 576.5 359 577 358.981C587.5 359.5 598.574 359.541 606 358.981L614.008 348.768C618.582 342.581 634.363 320.868 649.077 300.518C663.791 280.168 677.987 260.593 680.624 257.018C683.261 253.443 691.449 242.24 698.82 232.122C706.191 222.004 717.185 206.929 723.25 198.622C758.506 150.336 804.998 84.9311 822.744 58.6561C864.187 -2.70491 862.091 0.018095 867.874 0.018095C870.714 0.018095 871.937 0.551099 872.8 2.1641ZM841.164 55.4631C838.996 58.4581 835.422 63.4741 833.222 66.6111C820.107 85.3131 806.642 103.77 793.043 122.122C781.01 138.361 771.485 151.258 764.754 160.43C762.296 163.778 749.021 181.629 735.254 200.098C721.486 218.567 708.116 236.567 705.543 240.098C702.969 243.629 692.948 257.318 683.273 270.518C673.598 283.718 659.533 303.068 652.017 313.518C644.501 323.968 634.16 338.239 629.037 345.231C623.914 352.224 619.722 358.411 619.722 358.981C620.5 359.256 708.952 358.768 708.952 358.768C710.324 357.703 720.883 334.51 748.443 272.018C751.475 265.143 755.073 257.268 756.438 254.518C757.803 251.768 759.811 247.268 760.899 244.518C763.142 238.852 763.953 237.015 769.646 224.709C771.888 219.864 773.722 215.703 773.722 215.462C773.722 215.221 775.021 212.21 776.609 208.771C780.662 199.995 789.382 180.258 797.265 162.018C800.949 153.493 805.23 143.818 806.777 140.518C808.325 137.218 811.82 129.343 814.545 123.018C817.27 116.693 822.048 105.668 825.162 98.5181C828.277 91.3681 833.467 79.2181 836.694 71.5181C839.921 63.8181 843.279 55.8311 844.155 53.7681C845.032 51.7061 845.604 50.0181 845.428 50.0181C845.251 50.0181 843.332 52.4681 841.164 55.4631ZM1031.27 168.58C1016.79 190.563 1000.93 221.009 981.605 263.896C975.07 278.404 969.722 290.479 969.722 290.728C969.722 290.978 968.338 294.337 966.646 298.191C964.954 302.046 963.754 305.383 963.979 305.608C964.708 306.337 976.283 287.312 995.671 253.518C1000.79 244.593 1014.46 217.41 1021.1 202.935C1029.79 183.996 1038.45 161.414 1037.42 160.378C1037.17 160.13 1034.4 163.821 1031.27 168.58ZM868.445 173.268C861.653 181.733 846.09 206.86 836.704 224.518C830.559 236.079 808.722 279.818 808.722 280.566C808.722 280.843 806.759 285.22 804.361 290.294C797.211 305.416 786.574 330.018 787.186 330.018C787.67 330.018 806.334 303.605 814.39 291.518C832.921 263.716 853.954 224.714 863.524 200.406C869.049 186.374 874.132 169.018 872.717 169.018C872.243 169.018 870.321 170.931 868.445 173.268ZM83.2221 311.719C56.7221 321.42 1.77223 347.869 9.37812 351.8C14.5141 354.456 30.6551 356.57 52.7221 357.477C63.7221 357.929 419.402 356.775 561.354 358.518C564.076 357.724 564.307 357.701 566.436 349.459C573.742 321.174 573.736 296.39 566.418 280.018C555.541 255.681 528.55 241.476 484.722 237.023C345.235 222.857 109.722 302.018 83.2221 311.719ZM870.972 321.132C873.42 324.081 873.151 327.679 870.267 330.563C867.459 333.372 864.837 333.646 860.79 331.553C855.807 328.976 855.899 323.15 860.98 319.517C863.813 317.491 868.59 318.263 870.972 321.132ZM1046.72 344.87C1043.85 347.74 1043.53 348.579 1044.01 352.144C1044.84 358.325 1049.58 362.444 1051.15 358.351C1052.72 354.266 1052.88 345.499 1051.43 343.571C1050 341.68 1049.87 341.717 1046.72 344.87ZM575.228 365.268C565.002 394.878 550.268 430.801 542.005 446.268C541.784 446.681 541.831 447.018 542.108 447.018C556.428 441.747 588.331 380.842 598.898 369.827C600.451 367.796 601.722 365.018 601.722 365.077C601.722 365.077 575.886 364.944 575.228 365.268Z" fill="white"/>
</svg>
