<svg width="20" height="19" viewBox="0 0 20 19" fill="none" xmlns="http://www.w3.org/2000/svg">
<g clip-path="url(#clip0_699_117244)">
<g clip-path="url(#clip1_699_117244)">
<g clip-path="url(#clip2_699_117244)">
<g clip-path="url(#clip3_699_117244)">
<path fill-rule="evenodd" clip-rule="evenodd" d="M17.9972 8.47182L17.2741 7.62799C17.1371 7.46761 17.0337 7.28146 16.9698 7.0805C16.9058 6.87954 16.8828 6.66783 16.9019 6.45782L17.0025 5.34464C17.0387 4.97059 16.9386 4.59603 16.7205 4.29C16.5023 3.98397 16.1809 3.7671 15.8155 3.67935L14.7538 3.43346C14.5492 3.38563 14.3566 3.29627 14.188 3.17091C14.0194 3.04556 13.8783 2.88689 13.7736 2.70476L13.2148 1.74135C13.0297 1.41636 12.731 1.17123 12.3762 1.05302C12.0214 0.934818 11.6354 0.951881 11.2924 1.10093L10.2944 1.53682C10.1039 1.62026 9.8982 1.66333 9.69026 1.66333C9.48232 1.66333 9.27664 1.62026 9.08617 1.53682L8.08588 1.10093C7.74326 0.951601 7.35757 0.934034 7.0028 1.0516C6.64802 1.16917 6.34915 1.4136 6.16353 1.73799L5.60806 2.69582C5.39235 3.06464 5.03806 3.32841 4.62453 3.42229L3.56723 3.66482C3.2014 3.75211 2.87949 3.96879 2.66092 4.27487C2.44236 4.58094 2.34189 4.95575 2.37806 5.33011L2.47864 6.45111C2.51664 6.87582 2.38364 7.29717 2.1087 7.61905L1.37888 8.47293C0.875939 9.06082 0.875939 9.93817 1.38112 10.5261L2.10647 11.3721C2.38253 11.694 2.51664 12.1165 2.47864 12.5423L2.37806 13.6644C2.34169 14.0382 2.44153 14.4125 2.65921 14.7184C2.87689 15.0244 3.19776 15.2415 3.56276 15.3297L4.62788 15.5756C5.03806 15.6706 5.39235 15.9332 5.60694 16.3021L6.16241 17.2588C6.5547 17.9349 7.38064 18.2076 8.087 17.8958L9.08394 17.4566C9.27485 17.3721 9.48125 17.3282 9.69003 17.3279C9.8988 17.3275 10.1054 17.3706 10.2966 17.4543L11.2946 17.8913C11.6374 18.0406 12.0232 18.058 12.378 17.9402C12.7328 17.8224 13.0316 17.5778 13.217 17.2532L13.7736 16.2942C13.9882 15.9254 14.3414 15.6628 14.7515 15.5678L15.8166 15.3219C16.1819 15.2336 16.5029 15.0164 16.7206 14.7102C16.9383 14.404 17.038 14.0294 17.0014 13.6555L16.9008 12.5423C16.8628 12.1176 16.998 11.6929 17.2741 11.3721L17.9983 10.5283C18.243 10.2416 18.3775 9.877 18.3775 9.50005C18.3775 9.1231 18.243 8.75851 17.9983 8.47182H17.9972ZM5.51417 10.8714L7.50247 12.9145C7.66196 13.0739 7.87825 13.1635 8.10376 13.1635C8.32928 13.1635 8.54556 13.0739 8.70506 12.9145L13.6506 7.85711C13.8073 7.69639 13.895 7.48083 13.895 7.25638C13.895 7.03193 13.8073 6.81636 13.6506 6.65564L13.5925 6.59641C13.5152 6.51757 13.423 6.45494 13.3212 6.41218C13.2193 6.36943 13.11 6.3474 12.9996 6.3474C12.8892 6.3474 12.7799 6.36943 12.6781 6.41218C12.5763 6.45494 12.484 6.51757 12.4067 6.59641L8.10376 10.9899L6.75812 9.61182C6.68079 9.53281 6.58846 9.47003 6.48655 9.42718C6.38464 9.38432 6.2752 9.36225 6.16464 9.36225C6.05409 9.36225 5.94465 9.38432 5.84274 9.42718C5.74083 9.47003 5.6485 9.53281 5.57117 9.61182L5.51306 9.67105C5.35638 9.83177 5.26869 10.0473 5.26869 10.2718C5.26869 10.4962 5.35638 10.7118 5.51306 10.8725L5.51417 10.8714Z" fill="#1ABCFE"/>
</g>
</g>
</g>
<mask id="mask0_699_117244" style="mask-type:alpha" maskUnits="userSpaceOnUse" x="0" y="0" width="20" height="19">
<g clip-path="url(#clip4_699_117244)">
<g clip-path="url(#clip5_699_117244)">
<path fill-rule="evenodd" clip-rule="evenodd" d="M17.9972 8.47182L17.2741 7.62799C17.1371 7.46761 17.0337 7.28146 16.9698 7.0805C16.9058 6.87954 16.8828 6.66783 16.9019 6.45782L17.0025 5.34464C17.0387 4.97059 16.9386 4.59603 16.7205 4.29C16.5023 3.98397 16.1809 3.7671 15.8155 3.67935L14.7538 3.43346C14.5492 3.38563 14.3566 3.29627 14.188 3.17091C14.0194 3.04556 13.8783 2.88689 13.7736 2.70476L13.2148 1.74135C13.0297 1.41636 12.731 1.17123 12.3762 1.05302C12.0214 0.934818 11.6354 0.951881 11.2924 1.10093L10.2944 1.53682C10.1039 1.62026 9.8982 1.66333 9.69026 1.66333C9.48232 1.66333 9.27664 1.62026 9.08617 1.53682L8.08588 1.10093C7.74326 0.951601 7.35757 0.934034 7.0028 1.0516C6.64802 1.16917 6.34915 1.4136 6.16353 1.73799L5.60806 2.69582C5.39235 3.06464 5.03806 3.32841 4.62453 3.42229L3.56723 3.66482C3.2014 3.75211 2.87949 3.96879 2.66092 4.27487C2.44236 4.58094 2.34189 4.95575 2.37806 5.33011L2.47864 6.45111C2.51664 6.87582 2.38364 7.29717 2.1087 7.61905L1.37888 8.47293C0.875939 9.06082 0.875939 9.93817 1.38112 10.5261L2.10647 11.3721C2.38253 11.694 2.51664 12.1165 2.47864 12.5423L2.37806 13.6644C2.34169 14.0382 2.44153 14.4125 2.65921 14.7184C2.87689 15.0244 3.19776 15.2415 3.56276 15.3297L4.62788 15.5756C5.03806 15.6706 5.39235 15.9332 5.60694 16.3021L6.16241 17.2588C6.5547 17.9349 7.38064 18.2076 8.087 17.8958L9.08394 17.4566C9.27485 17.3721 9.48125 17.3282 9.69003 17.3279C9.8988 17.3275 10.1054 17.3706 10.2966 17.4543L11.2946 17.8913C11.6374 18.0406 12.0232 18.058 12.378 17.9402C12.7328 17.8224 13.0316 17.5778 13.217 17.2532L13.7736 16.2942C13.9882 15.9254 14.3414 15.6628 14.7515 15.5678L15.8166 15.3219C16.1819 15.2336 16.5029 15.0164 16.7206 14.7102C16.9383 14.404 17.038 14.0294 17.0014 13.6555L16.9008 12.5423C16.8628 12.1176 16.998 11.6929 17.2741 11.3721L17.9983 10.5283C18.243 10.2416 18.3775 9.877 18.3775 9.50005C18.3775 9.1231 18.243 8.75851 17.9983 8.47182H17.9972ZM5.51417 10.8714L7.50247 12.9145C7.66196 13.0739 7.87825 13.1635 8.10376 13.1635C8.32928 13.1635 8.54556 13.0739 8.70506 12.9145L13.6506 7.85711C13.8073 7.69639 13.895 7.48083 13.895 7.25638C13.895 7.03193 13.8073 6.81636 13.6506 6.65564L13.5925 6.59641C13.5152 6.51757 13.423 6.45494 13.3212 6.41218C13.2193 6.36943 13.11 6.3474 12.9996 6.3474C12.8892 6.3474 12.7799 6.36943 12.6781 6.41218C12.5763 6.45494 12.484 6.51757 12.4067 6.59641L8.10376 10.9899L6.75812 9.61182C6.68079 9.53281 6.58846 9.47003 6.48655 9.42718C6.38464 9.38432 6.2752 9.36225 6.16464 9.36225C6.05409 9.36225 5.94465 9.38432 5.84274 9.42718C5.74083 9.47003 5.6485 9.53281 5.57117 9.61182L5.51306 9.67105C5.35638 9.83177 5.26869 10.0473 5.26869 10.2718C5.26869 10.4962 5.35638 10.7118 5.51306 10.8725L5.51417 10.8714Z" fill="#1ABCFE"/>
</g>
</g>
</mask>
<g mask="url(#mask0_699_117244)">
<rect x="0.5" y="0.949219" width="19" height="17.1" fill="url(#paint0_radial_699_117244)"/>
</g>
</g>
<defs>
<radialGradient id="paint0_radial_699_117244" cx="0" cy="0" r="1" gradientUnits="userSpaceOnUse" gradientTransform="translate(-0.868 8.23382) scale(3.04 15.732)">
<stop stop-color="white" stop-opacity="0.6"/>
<stop offset="0.84" stop-color="white" stop-opacity="0"/>
</radialGradient>
<clipPath id="clip0_699_117244">
<rect width="19" height="19" fill="white" transform="translate(0.5)"/>
</clipPath>
<clipPath id="clip1_699_117244">
<rect width="19" height="17.1" fill="white" transform="translate(0.5 0.949219)"/>
</clipPath>
<clipPath id="clip2_699_117244">
<rect width="19" height="17.1" fill="white" transform="translate(0.5 0.949219)"/>
</clipPath>
<clipPath id="clip3_699_117244">
<rect width="19" height="17.8824" fill="white" transform="translate(0.5 0.558594)"/>
</clipPath>
<clipPath id="clip4_699_117244">
<rect width="19" height="17.1" fill="white" transform="translate(0.5 0.949219)"/>
</clipPath>
<clipPath id="clip5_699_117244">
<rect width="19" height="17.8824" fill="white" transform="translate(0.5 0.558594)"/>
</clipPath>
</defs>
</svg>
