<svg width="40" height="40" viewBox="0 0 40 40" fill="none" xmlns="http://www.w3.org/2000/svg">
<rect width="40" height="40" fill="white"/>
<g clip-path="url(#clip0_1433_7543)">
<path d="M4.68428 22.4811C4.22149 22.2908 3.8565 22.008 3.59458 21.6327C3.33765 21.2574 3.18848 20.8308 3.18848 20.3269H4.95678C4.97734 20.666 5.10596 20.9283 5.32178 21.1186C5.5376 21.3088 5.83066 21.4166 6.20594 21.4166C6.58121 21.4166 6.89981 21.3291 7.11594 21.1441C7.33176 20.9641 7.44481 20.7121 7.44481 20.4194C7.44481 20.1266 7.37785 19.9772 7.21871 19.818C7.06954 19.6586 6.87956 19.5352 6.66343 19.4427C6.43733 19.3552 6.1287 19.2525 5.73287 19.1447C5.19814 18.9852 4.77148 18.8364 4.42704 18.6819C4.08789 18.5278 3.80511 18.2964 3.56842 17.988C3.33236 17.68 3.20405 17.2637 3.20405 16.7445C3.20405 16.2253 3.33267 15.8345 3.56905 15.4748C3.8157 15.1098 4.16014 14.8426 4.5868 14.6473C5.02873 14.4567 5.52733 14.349 6.09289 14.349C6.94123 14.349 7.62482 14.5545 8.15955 14.9606C8.69427 15.3667 8.98733 15.9475 9.02844 16.6828H7.21373C7.19317 16.4001 7.07483 16.1584 6.84873 15.9787C6.62263 15.7987 6.32428 15.7062 5.96458 15.7062C5.60487 15.7062 5.38874 15.7834 5.19347 15.9528C5.00319 16.1226 4.89543 16.3589 4.89543 16.6673C4.89543 16.9756 4.96239 17.0631 5.11125 17.2123C5.26043 17.3614 5.44013 17.4692 5.65626 17.5617C5.87208 17.6492 6.18071 17.752 6.56626 17.87C7.10099 18.0295 7.54291 18.1886 7.8721 18.3431C8.21124 18.5025 8.49402 18.7389 8.74099 19.0472C8.98764 19.3658 9.10599 19.7719 9.10599 20.2808C9.10599 20.7897 8.99294 21.1291 8.76684 21.5041C8.54074 21.8794 8.20128 22.1827 7.76963 22.3985C7.3274 22.6246 6.80825 22.7377 6.20687 22.7377C5.66187 22.7533 5.13773 22.6502 4.68522 22.4602V22.4808L4.68428 22.4811ZM19.0419 17.9933H17.988V22.7638H17.2736C16.8211 22.7638 16.4458 22.3886 16.4458 21.9364V16.4309C16.4458 15.6959 16.6513 15.1509 17.078 14.8015C17.4947 14.4517 18.1319 14.2923 18.9852 14.3181V15.5981C18.6099 15.5878 18.3633 15.6548 18.2141 15.7781C18.0649 15.9067 17.9983 16.1431 17.9983 16.4823V16.7289H19.0522L19.0419 17.9936V17.9933ZM21.0827 17.9933V20.908C21.0827 21.1136 21.1291 21.2574 21.2319 21.3503C21.3347 21.4378 21.4888 21.4892 21.7305 21.4892H22.4346V22.7691H21.4835C20.2035 22.7691 19.5558 22.1472 19.5558 20.8981V16.2714C19.5558 15.8962 19.8538 15.6031 20.2241 15.6031H21.0827V16.7495H22.193L22.6763 17.9933H21.0777H21.0827ZM29.1276 16.7495L25.6424 25.0566C25.4932 25.3958 25.1693 25.6222 24.794 25.6222H23.7866L25.0924 22.62L22.6816 16.7495H23.6582C24.1005 16.7495 24.486 17.022 24.6452 17.4281L25.951 20.9544L27.3338 17.2789C27.4468 16.9603 27.7501 16.7442 28.0946 16.7442H29.1382L29.1279 16.7495H29.1276ZM12.755 16.5181C11.0328 16.5181 9.63978 17.9111 9.63978 19.6333C9.63978 21.3556 11.0328 22.7486 12.755 22.7486C14.4772 22.7486 15.8703 21.3556 15.8703 19.6333C15.8703 17.9111 14.4772 16.5181 12.755 16.5181ZM12.755 21.2216C11.8861 21.2216 11.182 20.5175 11.182 19.6486C11.182 18.7797 11.8861 18.0756 12.755 18.0756C13.6239 18.0756 14.3281 18.7797 14.3281 19.6486C14.3281 20.5175 13.6239 21.2216 12.755 21.2216Z" fill="url(#paint0_linear_1433_7543)"/>
<path d="M35.9289 18.0298L35.6514 18.1326V19.8906H35.9289V18.0298Z" fill="url(#paint1_linear_1433_7543)"/>
<path d="M30.4799 23.9772C32.7727 23.9772 34.6179 23.0828 34.6179 22.6817L34.6076 22.6353H34.6179V19.2578L30.593 20.62C30.5622 20.6303 30.5158 20.6406 30.4799 20.6406C30.4441 20.6406 30.4027 20.6303 30.3669 20.62L28.3725 19.9414L27 23.2416C27.7403 23.6169 29.0252 23.9766 30.4852 23.9766H30.4802L30.4799 23.9772Z" fill="url(#paint2_linear_1433_7543)"/>
<path d="M36.777 17.7365L30.2949 15.5054L28.6035 19.3712L30.2949 19.9367C30.4079 19.9676 30.5313 19.9676 30.6599 19.9367L34.6129 18.6001L36.412 17.9884L36.777 17.8598C36.8387 17.8339 36.8387 17.7467 36.777 17.7312V17.7365Z" fill="url(#paint3_linear_1433_7543)"/>
<path d="M36.0319 19.7979H35.5588C35.5021 19.8545 35.4561 19.947 35.4561 20.0342V21.1087C35.4561 21.2887 35.6052 21.4478 35.7952 21.4478C35.9852 21.4478 36.1344 21.2986 36.1344 21.1087V20.0342C36.1191 19.9364 36.0879 19.8542 36.0316 19.7979H36.0319Z" fill="url(#paint4_linear_1433_7543)"/>
<path d="M5.91688 25.5857C5.85771 25.5321 5.82812 25.4642 5.82812 25.3814C5.82812 25.2985 5.85771 25.2303 5.91688 25.1758C5.97605 25.1213 6.05422 25.0942 6.15201 25.0942C6.2498 25.0942 6.32517 25.1213 6.38434 25.1758C6.44351 25.2303 6.4731 25.2988 6.4731 25.3814C6.4731 25.4639 6.44351 25.5296 6.38434 25.5841C6.32517 25.6386 6.24793 25.6657 6.15201 25.6657C6.05609 25.6657 5.97605 25.6389 5.91688 25.5854V25.5857Z" fill="#FFBC00"/>
<path d="M9.8329 25.5857C9.77373 25.5321 9.74414 25.4642 9.74414 25.3814C9.74414 25.2985 9.77373 25.2303 9.8329 25.1758C9.89207 25.1213 9.97024 25.0942 10.068 25.0942C10.1658 25.0942 10.2412 25.1213 10.3004 25.1758C10.3595 25.2303 10.3891 25.2988 10.3891 25.3814C10.3891 25.4639 10.3595 25.5296 10.3004 25.5841C10.2412 25.6386 10.164 25.6657 10.068 25.6657C9.97211 25.6657 9.89207 25.6389 9.8329 25.5854V25.5857Z" fill="#FFBC00"/>
<path d="M12.7821 25.5857C12.7229 25.5321 12.6934 25.4642 12.6934 25.3814C12.6934 25.2985 12.7229 25.2303 12.7821 25.1758C12.8413 25.1213 12.9195 25.0942 13.0172 25.0942C13.115 25.0942 13.1904 25.1213 13.2496 25.1758C13.3087 25.2303 13.3383 25.2988 13.3383 25.3814C13.3383 25.4639 13.3087 25.5296 13.2496 25.5841C13.1904 25.6386 13.1132 25.6657 13.0172 25.6657C12.9213 25.6657 12.8413 25.6389 12.7821 25.5854V25.5857Z" fill="#FFBC00"/>
<path d="M16.1581 25.5857C16.0989 25.5321 16.0693 25.4642 16.0693 25.3814C16.0693 25.2985 16.0989 25.2303 16.1581 25.1758C16.2173 25.1213 16.2954 25.0942 16.3932 25.0942C16.491 25.0942 16.5664 25.1213 16.6256 25.1758C16.6847 25.2303 16.7143 25.2988 16.7143 25.3814C16.7143 25.4639 16.6847 25.5296 16.6256 25.5841C16.5664 25.6386 16.4891 25.6657 16.3932 25.6657C16.2973 25.6657 16.2173 25.6389 16.1581 25.5854V25.5857Z" fill="#FFBC00"/>
<path d="M19.5341 25.5857C19.4749 25.5321 19.4453 25.4642 19.4453 25.3814C19.4453 25.2985 19.4749 25.2303 19.5341 25.1758C19.5932 25.1213 19.6714 25.0942 19.7692 25.0942C19.867 25.0942 19.9424 25.1213 20.0015 25.1758C20.0607 25.2303 20.0903 25.2988 20.0903 25.3814C20.0903 25.4639 20.0607 25.5296 20.0015 25.5841C19.9424 25.6386 19.8651 25.6657 19.7692 25.6657C19.6733 25.6657 19.5932 25.6389 19.5341 25.5854V25.5857Z" fill="#FFBC00"/>
<path d="M3.78678 25.4589C3.63511 25.3465 3.55352 25.1858 3.54199 24.9762H4.1443C4.14991 25.0472 4.17108 25.0992 4.20783 25.1319C4.24427 25.1646 4.2913 25.1808 4.34891 25.1808C4.40061 25.1808 4.44359 25.1677 4.47722 25.1419C4.51086 25.1161 4.52767 25.0799 4.52767 25.0338C4.52767 24.9744 4.49964 24.9283 4.44421 24.8956C4.38846 24.8629 4.29815 24.8264 4.17326 24.7859C4.04059 24.7417 3.93377 24.699 3.85187 24.6576C3.77027 24.6162 3.69927 24.5558 3.63854 24.4761C3.57812 24.3963 3.54791 24.2923 3.54791 24.1634C3.54791 24.0344 3.58061 23.9211 3.64601 23.8277C3.71141 23.7345 3.80173 23.6638 3.91696 23.6159C4.03219 23.5679 4.16268 23.5439 4.30874 23.5439C4.54511 23.5439 4.73384 23.5991 4.87492 23.7096C5.016 23.8202 5.09136 23.9753 5.10102 24.1749H4.48719C4.48532 24.1136 4.46663 24.0675 4.43113 24.0366C4.39563 24.0058 4.34985 23.9905 4.2941 23.9905C4.25174 23.9905 4.21718 24.003 4.19039 24.0279C4.16361 24.0528 4.14991 24.0883 4.14991 24.1344C4.14991 24.1727 4.16486 24.206 4.19444 24.2338C4.22434 24.2618 4.26109 24.2858 4.30531 24.3057C4.34953 24.3259 4.41493 24.3515 4.5012 24.382C4.62982 24.4262 4.73602 24.4698 4.81948 24.5131C4.90295 24.5564 4.9752 24.6168 5.03562 24.6947C5.09604 24.7725 5.12624 24.871 5.12624 24.9899C5.12624 25.1089 5.09604 25.2194 5.03562 25.3154C4.9752 25.4116 4.88769 25.4873 4.77339 25.543C4.6591 25.5988 4.52425 25.6265 4.36853 25.6265C4.13215 25.6265 3.93813 25.5704 3.78647 25.458L3.78678 25.4589Z" fill="#3E82E3"/>
<path d="M8.4421 25.6111L7.79432 24.7051V25.6111H7.21973V23.5444H7.79432V24.4358L8.43649 23.5444H9.0989L8.33963 24.5469L9.1369 25.6111H8.4421Z" fill="#3E82E3"/>
<path d="M11.85 23.5439V25.6106H11.2754V23.5439H11.85Z" fill="#3E82E3"/>
<path d="M14.7338 25.1714H15.3759V25.6111H14.1592V23.5444H14.7338V25.1714Z" fill="#3E82E3"/>
<path d="M18.1097 25.1714H18.7519V25.6111H17.5352V23.5444H18.1097V25.1714Z" fill="#3E82E3"/>
<path d="M21.0807 25.4589C20.9291 25.3465 20.8475 25.1858 20.8359 24.9762H21.4382C21.4439 25.0472 21.465 25.0992 21.5018 25.1319C21.5382 25.1646 21.5852 25.1808 21.6429 25.1808C21.6949 25.1808 21.7375 25.1677 21.7712 25.1419C21.8048 25.1161 21.8216 25.0799 21.8216 25.0338C21.8216 24.9744 21.7936 24.9283 21.7382 24.8956C21.6824 24.8629 21.5921 24.8264 21.4672 24.7859C21.3345 24.7417 21.2277 24.699 21.1458 24.6576C21.0642 24.6162 20.9932 24.5558 20.9325 24.4761C20.8721 24.3963 20.8419 24.2923 20.8419 24.1634C20.8419 24.0344 20.8746 23.9211 20.94 23.8277C21.0054 23.7345 21.0957 23.6638 21.2109 23.6159C21.3261 23.5679 21.4566 23.5439 21.6027 23.5439C21.8391 23.5439 22.0278 23.5991 22.1689 23.7096C22.3099 23.8202 22.3853 23.9753 22.395 24.1749H21.7811C21.7793 24.1136 21.7606 24.0675 21.7251 24.0366C21.6896 24.0058 21.6438 23.9905 21.5884 23.9905C21.546 23.9905 21.5114 24.003 21.4846 24.0279C21.4579 24.0528 21.4442 24.0883 21.4442 24.1344C21.4442 24.1727 21.4591 24.206 21.4887 24.2338C21.5186 24.2618 21.5553 24.2858 21.5996 24.3057C21.6438 24.3259 21.7092 24.3515 21.7955 24.382C21.9241 24.4262 22.0303 24.4698 22.1137 24.5131C22.1972 24.5564 22.2695 24.6168 22.3299 24.6947C22.3903 24.7725 22.4205 24.871 22.4205 24.9899C22.4205 25.1089 22.3903 25.2194 22.3299 25.3154C22.2695 25.4116 22.1819 25.4873 22.0676 25.543C21.9534 25.5988 21.8185 25.6265 21.6628 25.6265C21.4264 25.6265 21.2324 25.5704 21.0807 25.458V25.4589Z" fill="#3E82E3"/>
</g>
<defs>
<linearGradient id="paint0_linear_1433_7543" x1="3.18848" y1="19.9687" x2="29.1379" y2="19.9687" gradientUnits="userSpaceOnUse">
<stop stop-color="#2860D6"/>
<stop offset="1" stop-color="#52AAF6"/>
</linearGradient>
<linearGradient id="paint1_linear_1433_7543" x1="35.6514" y1="18.9603" x2="35.9338" y2="18.9603" gradientUnits="userSpaceOnUse">
<stop stop-color="#FFAA00"/>
<stop offset="1" stop-color="#FFC800"/>
</linearGradient>
<linearGradient id="paint2_linear_1433_7543" x1="27" y1="21.6178" x2="34.6182" y2="21.6178" gradientUnits="userSpaceOnUse">
<stop stop-color="#FFAA00"/>
<stop offset="1" stop-color="#FFC800"/>
</linearGradient>
<linearGradient id="paint3_linear_1433_7543" x1="28.6038" y1="17.7327" x2="36.8234" y2="17.7327" gradientUnits="userSpaceOnUse">
<stop stop-color="#FFAA00"/>
<stop offset="1" stop-color="#FFC800"/>
</linearGradient>
<linearGradient id="paint4_linear_1433_7543" x1="35.4561" y1="20.6231" x2="36.1244" y2="20.6231" gradientUnits="userSpaceOnUse">
<stop stop-color="#FFAA00"/>
<stop offset="1" stop-color="#FFC800"/>
</linearGradient>
<clipPath id="clip0_1433_7543">
<rect width="33.6346" height="11.3504" fill="white" transform="translate(3.18848 14.3154)"/>
</clipPath>
</defs>
</svg>
