<svg width="20" height="21" viewBox="0 0 20 21" fill="none" xmlns="http://www.w3.org/2000/svg">
<g clip-path="url(#clip0_196_5668)">
<path d="M15.0098 0.125H5.00977C2.24834 0.125 0.00976562 2.36358 0.00976562 5.125V15.125C0.00976562 17.8864 2.24834 20.125 5.00977 20.125H15.0098C17.7712 20.125 20.0098 17.8864 20.0098 15.125V5.125C20.0098 2.36358 17.7712 0.125 15.0098 0.125Z" fill="#FCF1FF"/>
<path d="M16.1317 11.8622C15.6843 6.86886 7.54479 9.7485 6.2314 8.41243C5.98754 8.16421 5.94914 7.83844 6.04707 7.58441C6.41574 6.62841 9.25757 5.43971 12.902 5.00922C13.2342 4.97043 13.4742 4.66599 13.4339 4.32857C13.3993 4.02025 13.142 3.79531 12.8444 3.78949C12.8406 3.78949 12.8252 3.78949 12.8022 3.78949C12.7887 3.78949 12.7753 3.78949 12.7599 3.78949C11.7384 3.90972 10.7918 4.11527 9.93922 4.36542C6.60967 5.17986 1.69792 6.82426 2.43334 9.12022C3.11691 11.2533 11.4677 9.24432 11.8363 12.2073C12.1186 14.4684 5.52286 16.3746 7.19148 16.8031C9.44574 16.8439 16.4274 15.1645 16.1317 11.8602V11.8622Z" fill="#E0C2FF"/>
<path d="M7.10498 16.7707C7.10498 16.7707 7.10498 16.7531 7.11671 16.7394C7.10498 16.7531 7.10107 16.7629 7.10498 16.7707Z" fill="#00C9F7"/>
<path d="M14.1048 10.026C13.859 8.64342 10.4891 8.62209 7.59354 8.49798C7.26519 8.48635 6.95604 8.47277 6.66802 8.45144C5.03397 8.35449 3.70522 8.16251 3.43448 7.57107C3.31351 7.30734 3.30967 7.05913 3.39608 6.82644C2.57617 7.4586 2.15182 8.18384 2.44368 9.00216C3.19638 11.1081 12.1597 9.24262 13.0564 11.8915C13.7496 11.1585 14.1893 10.4934 14.1067 10.028L14.1048 10.026Z" fill="#A760FF"/>
<path d="M7.10547 16.7705C7.24948 17.0846 18.4133 16.022 17.9889 11.783C17.987 11.7617 17.9831 11.7403 17.9793 11.719C15.1298 14.4416 7.22068 16.9663 7.10547 16.7686V16.7705Z" fill="#A760FF"/>
<path d="M3.43176 7.57091C3.7025 8.16235 5.03125 8.35433 6.6653 8.45129C5.49209 8.36596 4.68946 8.17399 4.6069 7.6892C4.31119 5.95948 9.63578 4.51093 12.7791 3.81284C13.7084 3.60729 6.21215 4.65443 3.39336 6.82628C3.30695 7.06091 3.31079 7.30913 3.43176 7.57091Z" fill="#00C9F7"/>
<path d="M3.43176 7.57091C3.7025 8.16235 5.03125 8.35433 6.6653 8.45129C5.49209 8.36596 4.68946 8.17399 4.6069 7.6892C4.31119 5.95948 9.63578 4.51093 12.7791 3.81284C13.7084 3.60729 6.21215 4.65443 3.39336 6.82628C3.30695 7.06091 3.31079 7.30913 3.43176 7.57091Z" fill="#590696"/>
<path d="M7.59267 8.49795C10.4902 8.62206 13.8581 8.64339 14.1039 10.026C14.1865 10.4914 13.7468 11.1585 13.0536 11.8895C13.0805 11.9671 13.0997 12.0505 13.1131 12.1358C13.4223 14.3523 7.42754 16.3806 7.11648 16.7374C7.10496 16.7529 7.10112 16.7626 7.10496 16.7684C7.22016 16.9662 15.1293 14.4415 17.9788 11.7189C17.5564 8.24974 11.4042 8.62206 7.59267 8.49601V8.49795Z" fill="#B485FF"/>
<path d="M7.59319 10.2356C9.13699 10.2957 13.5745 10.5516 13.6647 12.1728C13.7262 13.2664 12.5779 14.6801 7.10547 16.7705C17.53 15.1261 18.0811 9.70616 7.59319 10.2356Z" fill="#590696"/>
<path d="M14.7197 4.90842C15.1926 4.90842 15.5761 4.52121 15.5761 4.04356C15.5761 3.56591 15.1926 3.1787 14.7197 3.1787C14.2467 3.1787 13.8633 3.56591 13.8633 4.04356C13.8633 4.52121 14.2467 4.90842 14.7197 4.90842Z" fill="url(#paint0_linear_196_5668)"/>
<path d="M13.9996 3.87905C13.9996 3.70646 14.0514 3.54358 14.1378 3.40977C13.9689 3.56685 13.8613 3.79373 13.8613 4.04388C13.8613 4.52091 14.2454 4.90874 14.7177 4.90874C15.0192 4.90874 15.2822 4.75167 15.4359 4.51509C15.2842 4.65665 15.0806 4.74585 14.856 4.74585C14.3836 4.74585 13.9996 4.35802 13.9996 3.88099V3.87905Z" fill="#FF9F00"/>
<path d="M14.8558 3.88068C14.9703 3.88068 15.0632 3.78692 15.0632 3.67125C15.0632 3.55559 14.9703 3.46182 14.8558 3.46182C14.7413 3.46182 14.6484 3.55559 14.6484 3.67125C14.6484 3.78692 14.7413 3.88068 14.8558 3.88068Z" fill="#DCFCFF"/>
</g>
<defs>
<linearGradient id="paint0_linear_196_5668" x1="13.8633" y1="4.04356" x2="15.5741" y2="4.04356" gradientUnits="userSpaceOnUse">
<stop stop-color="#FFAB00"/>
<stop offset="1" stop-color="#FFC900"/>
</linearGradient>
<clipPath id="clip0_196_5668">
<rect width="20" height="20" fill="white" transform="translate(0.00976562 0.125)"/>
</clipPath>
</defs>
</svg>
